<svg xmlns="http://www.w3.org/2000/svg" width="101"  viewBox="0 0 71 15" fill="#fff"><path d="M2.509,14.221a3.954,3.954,0,0,0,1.606-.306,3.488,3.488,0,0,0,1.1-.722,3.585,3.585,0,0,0,.7-1.062A6.392,6.392,0,0,0,6.312,11q0.112-.484.208-1.13L7.814,1.182H4.554L3.372,9.189A4.792,4.792,0,0,1,3.26,9.8a4.415,4.415,0,0,1-.192.544,1.042,1.042,0,0,1-.36.467,0.939,0.939,0,0,1-.551.162,1.3,1.3,0,0,1-1.214-.748L0.415,13.813a5.769,5.769,0,0,0,2.093.408h0ZM13.983,9.257a6.392,6.392,0,0,1-.24,1.122,0.839,0.839,0,0,1-.847.612,0.617,0.617,0,0,1-.655-0.629,5.764,5.764,0,0,1,.08-1.122l1.2-8.058H10.26L9.013,9.563q-0.671,4.658,3.4,4.658a5,5,0,0,0,1.918-.348,4.063,4.063,0,0,0,1.334-.833,4.378,4.378,0,0,0,.831-1.181,6.757,6.757,0,0,0,.479-1.207A9.09,9.09,0,0,0,17.2,9.563l1.247-8.381h-3.26ZM31.638,1.182H27.627L26.189,5.619q-0.272.867-.671,2.38H25.485l0.08-6.817H21.506L18.2,14h3.5l1.055-5.219q0.1-.544.256-1.539t0.208-1.3h0.032L23.184,14h2.653l1.71-5.253q0.176-.527.447-1.479t0.384-1.326H28.41L27.515,14H30.9ZM36.53,9.8a7.552,7.552,0,0,0,1.966-.17,4.87,4.87,0,0,0,1.582-.68,3.688,3.688,0,0,0,1.191-1.335,6.119,6.119,0,0,0,.647-2.083,5.051,5.051,0,0,0-.072-2.091,2.517,2.517,0,0,0-.879-1.352,4,4,0,0,0-1.478-.7,8.131,8.131,0,0,0-1.966-.213H34.549L32.647,14h3.26Zm1.542-3.23a1.527,1.527,0,0,1-1.111.34l0.447-2.958,0.24-.017a0.865,0.865,0,0,1,.823.45,1.708,1.708,0,0,1,.152,1.1A1.718,1.718,0,0,1,38.072,6.571Zm11.176-5.61a5.115,5.115,0,0,0-.807.068,5.878,5.878,0,0,0-.983.264,6.314,6.314,0,0,0-1.087.5,5.8,5.8,0,0,0-1.079.833A6.668,6.668,0,0,0,44.3,3.834,8.342,8.342,0,0,0,43.5,5.5a11.066,11.066,0,0,0-.535,2.176,6.779,6.779,0,0,0,.687,4.845,3.723,3.723,0,0,0,3.276,1.7,5.079,5.079,0,0,0,2.029-.459L49.7,10.175a2.956,2.956,0,0,1-1.854.816,1.37,1.37,0,0,1-1.175-.553,2.213,2.213,0,0,1-.423-1.3,12.746,12.746,0,0,1,.064-1.547,6.07,6.07,0,0,1,.264-1.139,6.579,6.579,0,0,1,.479-1.08,2.433,2.433,0,0,1,.775-0.858,1.9,1.9,0,0,1,1.087-.323,1.78,1.78,0,0,1,1.406.748l0.559-3.672a3.983,3.983,0,0,0-1.63-.306h0Zm7.653,8.3a6.392,6.392,0,0,1-.24,1.122,0.839,0.839,0,0,1-.847.612,0.617,0.617,0,0,1-.655-0.629,5.764,5.764,0,0,1,.08-1.122l1.2-8.058h-3.26L51.931,9.563q-0.671,4.658,3.4,4.658a5,5,0,0,0,1.918-.348,4.063,4.063,0,0,0,1.334-.833,4.378,4.378,0,0,0,.831-1.181,6.757,6.757,0,0,0,.479-1.207,9.09,9.09,0,0,0,.216-1.088l1.246-8.381H58.1ZM67.732,4.31H69.6l0.463-3.128H63.146L62.682,4.31h1.79L63.034,14h3.26Z"></path></svg>
